<?xml version="1.0" encoding="utf-8"?>
<!-- Generator: Adobe Illustrator 16.0.0, SVG Export Plug-In . SVG Version: 6.00 Build 0)  -->
<!DOCTYPE svg PUBLIC "-//W3C//DTD SVG 1.1//EN" "http://www.w3.org/Graphics/SVG/1.1/DTD/svg11.dtd">
<svg version="1.1" id="scenery" xmlns="http://www.w3.org/2000/svg" xmlns:xlink="http://www.w3.org/1999/xlink" x="0px" y="0px"
	 width="800.903px" height="4000.396px" viewBox="0 0 800.903 4000.396" enable-background="new 0 0 800.903 4000.396"
	 xml:space="preserve">
<g id="XMLID_1_">
	<g>
		<path fill="#7F5930" d="M0.484,0.123c28.37,110.16,73.16,92.88,100.45,214.39c18.2,81.05,34.6,163.66,50.95,249.3
			c14.5,75.96,19.56,166.7,31.87,250.73c16.29,111.2,33.16,230.85,41.28,355.74c7.26,111.73,12.58,213.27,31.21,305.49
			c30.54,151.24,76.17,219.88,110.37,359.29c27.87,113.63,65.49,252.76,82.09,395.12c22.141,189.94,30.15,397.16,53.71,585.37
			c10.41,83.23,16.08,150.811,33.601,212.9c7.529,26.689,13.979,55.54,21.14,83.01c4.48,17.21,10.07,28.4,14.44,44.27
			c11.71,42.551,11.939,100.36,21.01,143.841c14.27,68.439,38.35,123.22,55.12,188.369c12.72,49.44,25.01,104.33,36.52,157.94
			c11.5,53.56,22.891,116.55,37.851,157.31c6.12,16.681,12.58,22.54,18.88,36.181c15,32.53,22.42,90.66,32.26,142.859
			c6.94,36.87,15.65,100.021,27.25,117.891h-800V0.123z"/>
	</g>
	<g>
		<path fill="none" stroke="#000000" stroke-miterlimit="10" d="M800.484,4000.123c-11.6-17.87-20.31-81.021-27.25-117.891
			c-9.84-52.199-17.26-110.329-32.26-142.859c-6.3-13.641-12.76-19.5-18.88-36.181c-14.96-40.76-26.351-103.75-37.851-157.31
			c-11.51-53.61-23.8-108.5-36.52-157.94c-16.771-65.149-40.851-119.93-55.12-188.369c-9.07-43.48-9.3-101.29-21.01-143.841
			c-4.37-15.869-9.96-27.06-14.44-44.27c-7.16-27.47-13.61-56.32-21.14-83.01c-17.521-62.09-23.19-129.67-33.601-212.9
			c-23.56-188.21-31.569-395.43-53.71-585.37c-16.6-142.36-54.22-281.49-82.09-395.12c-34.2-139.41-79.83-208.05-110.37-359.29
			c-18.63-92.22-23.95-193.76-31.21-305.49c-8.12-124.89-24.99-244.54-41.28-355.74c-12.31-84.03-17.37-174.77-31.87-250.73
			c-16.35-85.64-32.75-168.25-50.95-249.3c-27.29-121.51-72.08-104.23-100.45-214.39v4000H800.484z"/>
	</g>
</g>
</svg>
